<svg xmlns="http://www.w3.org/2000/svg" viewBox="0 0 1600 520" role="img" aria-labelledby="title desc">
<title id="title">Yoko-NewContentLoader</title><desc id="desc">Shared content registration and service extension infrastructure for Brotato mods.</desc>
<defs><linearGradient id="bg" x1="0" y1="0" x2="1" y2="1"><stop stop-color="#17191d"/><stop offset="1" stop-color="#292d34"/></linearGradient></defs>
<rect width="1600" height="520" rx="28" fill="url(#bg)"/>
<g transform="translate(105 112)"><circle cx="150" cy="150" r="118" fill="#0d0f12" stroke="#707783" stroke-width="8"/><circle cx="150" cy="150" r="52" fill="#30363e" stroke="#d9dde2" stroke-width="7"/><g fill="none" stroke="#aeb5bf" stroke-width="9" stroke-linecap="round"><path d="M150 32v45M150 223v45M32 150h45M223 150h45"/><path d="M66 66l32 32M202 202l32 32M234 66l-32 32M98 202l-32 32"/></g><circle cx="150" cy="150" r="18" fill="#f1f3f5"/></g>
<g transform="translate(470 105)"><path d="M0 150h230M230 150l-42-38m42 38l-42 38" fill="none" stroke="#d9dde2" stroke-width="10" stroke-linecap="round" stroke-linejoin="round"/><g transform="translate(275 0)"><rect width="245" height="300" rx="20" fill="#0d0f12" stroke="#707783" stroke-width="8"/><rect x="35" y="35" width="175" height="36" rx="7" fill="#30363e"/><rect x="35" y="92" width="175" height="36" rx="7" fill="#30363e"/><rect x="35" y="149" width="175" height="36" rx="7" fill="#30363e"/><rect x="35" y="206" width="175" height="36" rx="7" fill="#30363e"/></g></g>
<g transform="translate(900 120)"><text x="0" y="82" fill="#f1f3f5" font-family="Arial,Helvetica,sans-serif" font-size="67" font-weight="800">Yoko-NewContentLoader</text><text x="3" y="137" fill="#aeb5bf" font-family="Arial,Helvetica,sans-serif" font-size="30">Content registration · Services · Extensions</text><rect x="3" y="182" width="430" height="6" rx="3" fill="#d9dde2"/><text x="3" y="247" fill="#d0d5db" font-family="Arial,Helvetica,sans-serif" font-size="25">DATA  →  LOADER  →  BROTATO SERVICES</text></g>
</svg>